#!OML:ASF H:\LiuWeirdWalks\Patient Classification 1\Patient 1\Session 1\male.ASF
:FULLY-SPECIFIED
:DEGREES
258
root 0.402678 17.6501 1.68405 3.81364 -1.60396 -10.6899
lowerback 5.81597 1.67804 5.72185
upperback -1.33409 2.91671 5.38191
thorax -4.66375 1.36575 2.11153
lowerneck -17.4455 0.259016 4.91249
upperneck 23.6156 0.747012 -6.83002
head 10.4901 -0.0397651 -3.17372
rclavicle -2.48978e-014 -5.40694e-014
rhumerus -27.5335 -0.332791 -79.8989
rradius 40.4423
rwrist -15.2128
rhand -19.4185 -1.38834
rfingers 7.12502
rthumb 6.90113 -31.2559
lclavicle -2.48978e-014 -5.40694e-014
lhumerus -43.4486 -0.389117 87.5789
lradius 23.8479
lwrist 6.67416
lhand -12.984 -1.48207
lfingers 7.12502
lthumb 13.1087 28.0859
rfemur 16.5779 0.874631 34.8846
rtibia 5.07409
rfoot -6.06309 -19.6994
rtoes -12.6013
lfemur -38.3732 -0.0165796 -3.92969
ltibia 25.2649
lfoot -9.18208 23.0733
ltoes -12.3641
259
root 0.422679 17.6271 1.97563 3.93367 -2.19142 -10.4606
lowerback 5.6831 1.88005 5.52433
upperback -1.2891 3.1485 5.24494
thorax -4.54173 1.48652 2.06028
lowerneck -17.5682 0.280591 4.91968
upperneck 23.6018 0.746392 -6.74208
head 10.5086 -0.0305585 -3.14416
rclavicle -3.97569e-015 -5.40694e-014
rhumerus -27.0219 0.443412 -80.0296
rradius 42.0639
rwrist -15.3331
rhand -19.7775 -0.0650481
rfingers 7.12502
rthumb 6.55463 -29.9436
lclavicle -3.97569e-015 -5.40694e-014
lhumerus -44.3227 1.42058 86.2786
lradius 22.7453
lwrist 5.89624
lhand -13.2808 -1.29693
lfingers 7.12502
lthumb 12.8225 28.2892
rfemur 17.5355 1.26028 34.5112
rtibia 5.05571
rfoot -5.51703 -19.624
rtoes -13.6445
lfemur -38.3612 -0.564098 -3.6951
ltibia 24.0135
lfoot -10.1111 23.6397
ltoes -14.3155
260
root 0.443953 17.6044 2.27119 4.00594 -2.71283 -10.218
lowerback 5.55837 2.05506 5.33135
upperback -1.23947 3.34563 5.09807
thorax -4.41921 1.58981 2.00053
lowerneck -17.6379 0.294532 4.93816
upperneck 23.5824 0.733211 -6.65326
head 10.5139 -0.0251962 -3.11716
rclavicle 3.12092e-014 3.26007e-014
rhumerus -26.5639 1.14033 -80.1231
rradius 43.5082
rwrist -15.4345
rhand -20.1326 1.14107
rfingers 7.12502
rthumb 6.21183 -28.7478
lclavicle 3.12092e-014 3.26007e-014
lhumerus -45.2011 3.26853 84.8235
lradius 21.6972
lwrist 5.1756
lhand -13.5308 -1.05091
lfingers 7.12502
lthumb 12.5815 28.5502
rfemur 18.0431 1.58187 34.084
rtibia 6.00121
rfoot -5.2825 -19.5207
rtoes -14.7385
lfemur -38.3045 -0.530876 -3.86352
ltibia 23.2804
lfoot -10.8971 23.4234
ltoes -15.9271
261
root 0.466503 17.5825 2.57017 4.02545 -3.12637 -9.95565
lowerback 5.45045 2.18921 5.13555
upperback -1.18251 3.48982 4.94591
thorax -4.29885 1.6668 1.94219
lowerneck -17.6378 0.311953 5.008
upperneck 23.4573 0.722286 -6.61759
head 10.4676 -0.0196928 -3.11418
rclavicle 5.59579e-014 1.15295e-014
rhumerus -26.1472 1.76873 -80.1889
rradius 44.7495
rwrist -15.5397
rhand -20.5236 2.14337
rfingers 7.12502
rthumb 5.83432 -27.7563
lclavicle 5.59579e-014 1.15295e-014
lhumerus -46.077 5.13572 83.2345
lradius 20.6938
lwrist 4.45405
lhand -13.7404 -0.827286
lfingers 7.12502
lthumb 12.3794 28.7862
rfemur 18.2175 1.79699 33.6019
rtibia 7.66113
rfoot -5.21565 -19.344
rtoes -15.8764
lfemur -38.198 0.190316 -4.53284
ltibia 23.0416
lfoot -11.484 22.308
ltoes -17.1497
262
root 0.490889 17.5608 2.87222 3.96831 -3.41645 -9.69959
lowerback 5.40061 2.27595 4.97157
upperback -1.12446 3.57901 4.79866
thorax -4.20911 1.71507 1.87466
lowerneck -17.5928 0.340436 5.1349
upperneck 23.2798 0.72622 -6.64323
head 10.3951 -0.00914183 -3.13916
rclavicle -1.13059e-014 -1.27222e-014
rhumerus -25.7913 2.31535 -80.2283
rradius 45.7748
rwrist -15.685
rhand -20.8725 2.89404
rfingers 7.12502
rthumb 5.49742 -27.0147
lclavicle -1.13059e-014 -1.27222e-014
lhumerus -46.9514 6.98725 81.5439
lradius 19.7181
lwrist 3.75245
lhand -13.8959 -0.603478
lfingers 7.12502
lthumb 12.2295 29.019
rfemur 18.2193 1.88451 33.1012
rtibia 9.75049
rfoot -5.13638 -19.0502
rtoes -17.0545
lfemur -38.01 1.38151 -5.5578
ltibia 23.2487
lfoot -11.8101 20.5569
ltoes -17.9058
263
root 0.517437 17.5393 3.17748 3.83576 -3.57557 -9.43133
lowerback 5.39529 2.31866 4.81774
upperback -1.05983 3.61436 4.66091
thorax -4.13799 1.73613 1.81472
lowerneck -17.5423 0.367527 5.26496
upperneck 23.1237 0.735652 -6.69566
head 10.3299 0.0010209 -3.17411
rclavicle -2.96935e-014 -3.89618e-014
rhumerus -25.4954 2.77689 -80.23
rradius 46.583
rwrist -15.9082
rhand -21.1589 3.3875
rfingers 7.12502
rthumb 5.22095 -26.5282
lclavicle -2.96935e-014 -3.89618e-014
lhumerus -47.8076 8.78866 79.8034
lradius 18.7571
lwrist 3.05316
lhand -14.0175 -0.445762
lfingers 7.12502
lthumb 12.1123 29.1836
rfemur 18.1173 1.83661 32.5651
rtibia 12.1111
rfoot -4.93398 -18.6286
rtoes -18.2454
lfemur -37.7211 2.61801 -6.71335
ltibia 23.8286
lfoot -11.9347 18.5884
ltoes -18.4039
264
root 0.54659 17.5183 3.48724 3.62028 -3.6117 -9.15792
lowerback 5.42764 2.31826 4.6793
upperback -0.990397 3.59695 4.53923
thorax -4.08351 1.73051 1.7662
lowerneck -17.463 0.386117 5.36896
upperneck 22.9983 0.745346 -6.75519
head 10.2704 0.00854757 -3.20764
rclavicle -1.89839e-014 -2.82274e-014
rhumerus -25.2884 3.15448 -80.1965
rradius 47.1822
rwrist -16.2212
rhand -21.318 3.62199
rfingers 7.12502
rthumb 5.06734 -26.2974
lclavicle -1.89839e-014 -2.82274e-014
lhumerus -48.6834 10.4904 78.0677
lradius 17.8508
lwrist 2.34269
lhand -14.1472 -0.366357
lfingers 7.12502
lthumb 11.9871 29.2704
rfemur 17.9614 1.85048 32.0624
rtibia 14.6565
rfoot -4.44249 -18.259
rtoes -19.3995
lfemur -37.2962 3.53593 -7.77339
ltibia 24.6957
lfoot -11.9724 16.6942
ltoes -18.7282
